# xmcd
#
# Track frame offsets:
#	150
#	10866
#	26165
#	45132
#	63394
#	80114
#	97363
#	117624
#	133699
#	151662
#
# Disc length: 2187 seconds
#
# Revision: 3
# Processed by: cddbd v1.5.2PL0 Copyright (c) Steve Scherf et al.
# Submitted via: audiograbber 1.83.01
#
DISCID=8108890a
DTITLE=Various Artist - New Country - Volume 5 - Number 1
DYEAR=1997
DGENRE=Country
TTITLE0=Dwight Yoakam - Playboy
TTITLE1=Mount Pilot - Gypsy Queen
TTITLE2=Jerry Jeff Walker - Nolan Ryan (He's A Hero To Us All)
TTITLE3=Tim Ryan - Tried, True And Tested
TTITLE4=Dale Ann Bradley - I Want It Back
TTITLE5=Eddie Rabbitt - Great Old American Town
TTITLE6=Lonesome Bob - Different Shades Of Gray
TTITLE7=Tom Russell - Navajo Rug
TTITLE8=Fred Eaglesmith - Alcohol and Pills
TTITLE9=Longview - I've Never Been So Lonesome
EXTD=
EXTT0=
EXTT1=
EXTT2=
EXTT3=
EXTT4=
EXTT5=
EXTT6=
EXTT7=
EXTT8=
EXTT9=
PLAYORDER=
